<svg width="474" height="123" xmlns="http://www.w3.org/2000/svg" xmlns:xlink="http://www.w3.org/1999/xlink" xml:space="preserve" overflow="hidden"><g transform="translate(-54 -34)"><path d="M64.7391 155.838 63.9718 155.697 63.3143 155.505 62.6569 155.313 61.7181 154.905 60.7788 154.497 59.8483 153.881 58.9173 153.266 58.1287 152.533 57.3402 151.8 56.6278 150.849 55.9149 149.898 55.4362 148.963 54.9575 148.028 54.6787 147.202 54.3995 146.377 54.2 145.443 54.0006 144.507 54.0006 103.362 54.0006 62.217 54.2 61.2818 54.3995 60.347 54.6787 59.522 54.9575 58.6965 55.4362 57.7617 55.9149 56.8265 56.6278 55.875 57.3402 54.9242 58.1287 54.1912 58.9173 53.4578 59.8483 52.8424 60.7788 52.2271 61.7315 51.8125 62.6843 51.3974 63.2734 51.221 63.8624 51.0452 65.0867 50.8278 66.3104 50.6109 71.0437 50.6109 75.7765 50.6109 75.692 50.9131 75.6076 51.2158 75.5641 56.634 75.5206 62.0521 71.1665 62.0521 66.8125 62.0521 66.3301 62.2997 65.8478 62.5474 65.6219 62.8579 65.3965 63.1684 65.3965 103.362 65.3965 143.556 65.6271 143.866 65.8576 144.177 66.2296 144.397 66.6016 144.617 101.501 144.617 136.399 144.617 136.771 144.397 137.144 144.177 137.374 143.866 137.605 143.556 137.605 103.362 137.605 63.1684 137.374 62.8579 137.144 62.5474 136.771 62.3273 136.399 62.1073 131.94 62.075 127.481 62.0428 127.437 56.6293 127.393 51.2158 127.309 50.9131 127.225 50.6104 131.954 50.6104 136.684 50.6104 137.947 50.8377 139.211 51.065 140.051 51.3464 140.892 51.6278 141.727 52.0367 142.563 52.4455 143.371 52.9844 144.179 53.5233 145.172 54.5148 146.164 55.5062 146.776 56.4415 147.388 57.3763 147.714 58.0364 148.04 58.6965 148.321 59.5215 148.601 60.347 148.801 61.2818 149 62.217 149 103.362 149 144.507 148.801 145.442 148.601 146.377 148.321 147.202 148.04 148.028 147.714 148.688 147.388 149.348 146.776 150.283 146.164 151.218 145.172 152.21 144.179 153.201 143.371 153.74 142.563 154.279 141.727 154.688 140.892 155.097 140.04 155.382 139.188 155.667 138.232 155.835 137.276 156.003 101.391 155.991 65.5058 155.98ZM87.1657 130.258 86.3632 130.046 85.6865 129.703 85.0099 129.36 84.6265 129.078 84.2431 128.797 83.8204 128.401 83.3976 128.005 82.9577 127.414 82.5179 126.823 82.1589 126.039 81.7998 125.255 81.6107 124.32 81.4221 123.385 81.4916 122.464 81.5615 121.544 81.6806 121.034 81.7993 120.524 82.2785 119.534 82.7578 118.544 83.6033 117.609 84.4488 116.674 90.4665 110.372 96.4846 104.071 97.1721 103.578 97.8591 103.086 98.3539 102.866 98.8487 102.647 99.9019 102.372 100.956 102.097 101.555 102.097 102.155 102.097 103.208 102.372 104.262 102.647 104.747 102.862 105.233 103.077 105.904 103.55 106.575 104.022 112.562 110.293 118.549 116.564 119.401 117.495 120.253 118.426 120.621 119.091 120.99 119.754 121.286 120.634 121.583 121.515 121.595 122.78 121.607 124.045 121.412 124.76 121.216 125.475 120.901 126.154 120.586 126.833 120.149 127.426 119.714 128.018 119.137 128.539 118.559 129.06 117.903 129.447 117.246 129.833 116.413 130.13 115.58 130.426 101.774 130.448 87.9682 130.47ZM120.621 110.283 119.854 110.113 119.032 109.72 118.21 109.326 117.327 108.435 116.444 107.543 116.094 106.91 115.743 106.278 115.474 105.56 115.205 104.842 115.025 103.992 114.845 103.142 114.84 101.767 114.835 100.392 115.018 99.4367 115.201 98.4816 115.479 97.6213 115.758 96.7614 116.126 95.991 116.494 95.2212 117.046 94.3722 117.598 93.5228 118.429 92.6499 119.259 91.7771 120.071 91.2143 120.882 90.6514 121.666 90.3164 122.45 89.9815 123.398 89.7708 124.346 89.5601 124.701 89.5575 125.056 89.5549 126.097 89.8264 127.138 90.098 127.495 90.2821 127.852 90.4662 128.336 90.7986 128.82 91.1305 129.292 91.6117 129.764 92.0928 130.101 92.5849 130.439 93.077 130.815 93.8739 131.191 94.6708 131.42 95.551 131.65 96.4311 131.711 97.8158 131.772 99.201 131.583 100.341 131.393 101.481 131.082 102.437 130.77 103.393 130.282 104.367 129.794 105.342 129.269 106.057 128.745 106.772 128.134 107.418 127.523 108.064 126.902 108.546 126.28 109.028 125.478 109.461 124.675 109.894 123.883 110.113 123.092 110.332 122.24 110.392 121.388 110.451ZM80.2435 110.12 79.6409 110.051 78.9835 109.859 78.326 109.668 77.5846 109.295 76.8432 108.922 76.2692 108.497 75.6951 108.071 74.9465 107.312 74.1973 106.553 73.6969 105.848 73.1959 105.144 72.6892 104.143 72.182 103.142 71.9234 102.318 71.6649 101.493 71.5105 100.887 71.3561 100.282 71.2934 98.5685 71.2307 96.8556 71.4178 95.9302 71.6043 95.0048 71.9348 94.1439 72.2654 93.283 72.8083 92.4684 73.3508 91.6543 73.9601 91.1092 74.5693 90.564 75.3516 90.1656 76.1345 89.7676 76.9976 89.5513 77.8608 89.3354 78.3125 89.3369 78.7643 89.338 79.8238 89.6028 80.8833 89.8675 81.6713 90.2644 82.4588 90.6618 82.9676 91.0083 83.4758 91.3547 84.3618 92.2426 85.2472 93.1311 85.7984 93.9561 86.3492 94.7811 86.6947 95.4688 87.0403 96.1565 87.2631 96.7234 87.4854 97.2904 87.762 98.3459 88.0387 99.4018 88.0982 100.942 88.1573 102.482 87.9796 103.506 87.8019 104.53 87.4636 105.41 87.1258 106.291 86.5834 107.105 86.0404 107.919 85.3762 108.513 84.712 109.107 84.0219 109.453 83.3313 109.798 82.6915 109.954 82.0516 110.111 81.4485 110.15 80.846 110.188ZM92.1342 96.1487 91.5886 96.0571 90.9291 95.8173 90.2696 95.5775 89.5572 95.1151 88.8448 94.6531 88.1568 93.9644 87.4682 93.2752 86.9082 92.4424 86.3481 91.6091 85.9332 90.7191 85.5176 89.829 85.2322 88.8412 84.9472 87.8529 84.7757 86.8063 84.6042 85.7602 84.6597 84.0546 84.7151 82.3494 85.0576 81.0365 85.4 79.7236 85.8363 78.8486 86.2725 77.9732 86.7559 77.2933 87.2393 76.6134 87.8858 76.0126 88.5319 75.4113 89.2914 75.0186 90.0504 74.6253 90.598 74.4719 91.1462 74.3184 92.0772 74.3257 93.0087 74.3335 93.7755 74.5697 94.5428 74.8064 95.2505 75.2225 95.9577 75.6386 96.7452 76.384 97.5322 77.1295 98.0782 77.9243 98.6238 78.7191 99.0279 79.5275 99.432 80.3353 99.7486 81.3075 100.065 82.2802 100.235 83.1812 100.406 84.0821 100.472 85.3061 100.539 86.5301 100.367 87.8284 100.196 89.1263 99.774 90.3705 99.3517 91.6143 98.8647 92.4752 98.3777 93.3355 97.4902 94.2297 96.6027 95.1234 95.7779 95.5328 94.9526 95.9421 94.1998 96.1024 93.447 96.2626 93.0637 96.2516 92.6803 96.2402ZM108.732 96.0998 108.02 95.9406 107.204 95.5364 106.388 95.1327 105.506 94.2417 104.623 93.3512 104.178 92.5808 103.734 91.8109 103.437 91.0957 103.141 90.3804 102.86 89.2802 102.58 88.1801 102.519 86.6404 102.458 85.1001 102.587 84.1331 102.715 83.1661 102.974 82.1528 103.233 81.1395 103.644 80.1636 104.053 79.1883 104.681 78.2385 105.31 77.2891 106.008 76.5827 106.706 75.8769 107.43 75.4046 108.156 74.9317 108.964 74.6617 109.773 74.3923 110.485 74.3195 111.198 74.2466 112.009 74.4178 112.821 74.5889 113.488 74.9047 114.156 75.2204 114.786 75.738 115.416 76.2556 115.967 76.937 116.518 77.6189 117.058 78.7191 117.597 79.8193 117.871 80.8643 118.145 81.9094 118.275 83.0626 118.404 84.2158 118.33 85.3545 118.257 86.4937 118.09 87.379 117.923 88.2648 117.588 89.2678 117.254 90.2707 116.869 91.0405 116.484 91.8109 115.938 92.6057 115.393 93.4006 114.603 94.146 113.814 94.8909 113.2 95.2565 112.586 95.6217 111.837 95.8802 111.088 96.1383 110.266 96.1986 109.445 96.2594ZM79.3689 57.8439 79.371 52.316 79.5244 51.5883 79.6782 50.8605 80.0766 50.0662 80.4745 49.2724 81.1631 48.591 81.8516 47.9101 82.4998 47.5642 83.1474 47.2183 84.0665 46.9894 84.9856 46.76 87.1621 46.76 89.338 46.76 89.3386 46.2924 89.3391 45.8252 89.4598 44.8348 89.5805 43.8449 89.8473 42.9206 90.1136 41.9962 90.4815 41.1978 90.8488 40.3993 91.3348 39.6466 91.8202 38.8944 92.4145 38.2156 93.0087 37.5368 93.7988 36.8756 94.5884 36.2139 95.3329 35.7708 96.0769 35.3276 96.8923 34.991 97.7078 34.6539 98.3378 34.4901 98.9673 34.3262 99.8781 34.1645 100.788 34.0027 101.501 34.0027 102.213 34.0027 103.123 34.1645 104.034 34.3262 104.664 34.4901 105.294 34.6539 106.109 34.991 106.925 35.3276 107.669 35.7708 108.413 36.2139 109.203 36.8756 109.993 37.5368 110.587 38.2156 111.181 38.8944 111.641 39.6091 112.101 40.3244 112.392 40.9033 112.682 41.4823 113.01 42.4649 113.338 43.448 113.5 44.5264 113.662 45.6052 113.662 46.1826 113.663 46.76 115.864 46.76 118.064 46.76 118.959 46.9889 119.854 47.2178 120.502 47.5637 121.149 47.9101 121.838 48.591 122.526 49.2724 122.917 50.0512 123.308 50.8299 123.469 51.5181 123.631 52.2057 123.633 57.7888 123.634 63.3723 101.501 63.3723 79.3669 63.3723ZM103.387 50.731 103.903 50.4938 104.403 50.111 104.903 49.7276 105.224 49.3718 105.544 49.0155 105.82 48.5119 106.096 48.009 106.264 47.3613 106.431 46.7137 106.431 46.0999 106.431 45.4861 106.264 44.839 106.096 44.1914 105.818 43.6795 105.541 43.1677 105.087 42.6985 104.633 42.2287 104.174 41.912 103.715 41.5947 102.868 41.3174 102.02 41.0396 101.459 41.0454 100.898 41.0516 100.047 41.3481 99.1963 41.6446 98.6124 42.0737 98.028 42.5034 97.6001 43.0917 97.1726 43.68 96.9058 44.3126 96.6385 44.9451 96.639 46.0999 96.639 47.2552 96.9348 47.9731 97.2307 48.6904 97.64 49.1976 98.0492 49.7052 98.6248 50.1302 99.2004 50.5557 99.8848 50.807 100.569 51.0587 101.72 51.0135 102.87 50.9682Z" fill="#E75743" fill-rule="evenodd"/><path d="M512.555 67.1245C517.898 67.53 522.708 68.6707 525.607 70.2202L527.062 70.9982 527.118 76.1765C527.149 79.0245 527.137 81.3547 527.092 81.3547 527.048 81.3547 526.635 81.2237 526.175 81.0636 524.308 80.4126 519.809 79.2172 517.066 78.6433 513.305 77.8558 508.35 77.6434 505.298 78.1387 493.853 79.9961 486.286 87.3199 484.127 98.632 483.58 101.494 483.586 109.82 484.137 112.721 485.185 118.239 487.376 122.532 490.75 125.677 494.079 128.777 497.902 130.545 503.739 131.68 505.215 131.967 506.673 132.045 510.611 132.046 515.274 132.046 515.787 132.008 518.268 131.484 519.731 131.173 522.469 130.412 524.353 129.79 526.236 129.17 527.828 128.662 527.888 128.662 527.95 128.662 528 130.974 528 133.801L528 138.941 526.324 139.774C520.99 142.422 514.194 143.433 505.752 142.832 485.931 141.424 473.85 129.707 472.204 110.293 471.285 99.467 473.473 90.0871 478.737 82.2803 485.797 71.8084 498.608 66.0667 512.555 67.1245Z" fill="#E75743" fill-rule="evenodd"/><path d="M288 68.0001 300.484 68.0999C313.782 68.2065 314.714 68.2676 318.496 69.2821 326.996 71.5621 332.251 76.2969 334.079 83.3219 335.676 89.4601 334.584 96.6816 331.289 101.764 330.014 103.73 327.003 106.782 325.128 108.008 323.366 109.16 320.688 110.465 319.331 110.832 318.802 110.976 318.369 111.168 318.369 111.258 318.369 111.349 323.461 118.303 329.685 126.712L341 142 334.64 141.945 328.28 141.891 316.787 127.172 305.294 112.453 302.15 112.453 299.006 112.453 299.006 127.224 299.006 141.994 293.503 141.994 288 141.994 288 104.997 288 68.0001ZM299.006 78.7242 299.006 90.246 299.006 101.768 304.662 101.653C308.372 101.578 310.95 101.427 312.153 101.216 319.829 99.8686 322.77 97.2256 323.491 91.0241 323.91 87.4303 323.02 84.2118 321.163 82.5984 319.32 80.9971 315.847 79.7438 311.745 79.2 310.736 79.0663 307.457 78.9044 304.459 78.8405L299.006 78.7242Z" fill="#E75743" fill-rule="evenodd"/><path d="M266.755 68.0001 272.377 68.0001 278 68.0001 277.996 92.0699C277.992 116.672 277.938 118.682 277.176 122.737 275.163 133.444 268.816 140.029 258.409 142.209 254.725 142.98 250.26 143.201 246.207 142.812L246.206 142.812C241.364 142.348 236.982 140.887 233.446 138.56 231.707 137.416 228.923 134.504 227.556 132.4 225.166 128.722 223.818 124.517 223.204 118.82 223.084 117.717 223.003 107.039 223.002 92.4826L223 68.0004 228.514 68.0004 234.029 68.0004 234.089 93.9257 234.15 119.851 234.629 121.603C236.163 127.215 239.671 130.501 245.569 131.849 247.684 132.333 253.019 132.331 255.279 131.844 261.538 130.499 265.163 127.01 266.35 121.19 266.734 119.309 266.749 118.221 266.752 93.6162L266.755 68.0001Z" fill="#E75743" fill-rule="evenodd"/><path d="M171 68.0001 193.5 68.0001 216 68.0001 216 73.3732 216 78.7463 199.177 78.7991 182.354 78.8521 182.3 88.7221 182.246 98.5923 197.56 98.5923 212.875 98.5923 212.875 103.967 212.875 109.341 197.562 109.341 182.25 109.341 182.25 125.67 182.25 142 176.625 142 171 142 171 105 171 68.0001Z" fill="#E75743" fill-rule="evenodd"/><path d="M345 68.0001 367.469 68.0001 389.938 68.0001 389.938 73.3743 389.938 78.7486 373.035 78.7486 356.131 78.7486 356.131 88.7738 356.131 98.799 371.592 98.799 387.053 98.799 387.053 104.173 387.053 109.548 371.592 109.548 356.131 109.548 356.131 120.399 356.131 131.252 374.066 131.252 392 131.252 392 136.626 392 142 368.5 142 345 142 345 105 345 68.0001Z" fill="#E75743" fill-rule="evenodd"/><path d="M400 68.0001 405.523 68.0001 411.045 68.0001 411.045 99.6258 411.045 131.252 428.023 131.252 445 131.252 445 136.626 445 142 422.5 142 400 142 400 105 400 68.0001Z" fill="#E75743" fill-rule="evenodd"/><path d="M452 68.0001 458 68.0001 464 68.0001 464 105 464 142 458 142 452 142 452 105 452 68.0001Z" fill="#E75743" fill-rule="evenodd"/></g></svg>