<svg width="299" height="276" xmlns="http://www.w3.org/2000/svg" xmlns:xlink="http://www.w3.org/1999/xlink" xml:space="preserve" overflow="hidden"><defs><clipPath id="clip0"><rect x="2698" y="502" width="299" height="276"/></clipPath></defs><g clip-path="url(#clip0)" transform="translate(-2698 -502)"><path d="M2844.8 638.715 2847.76 638.715 2850.73 638.715 2855.93 640.066 2861.13 641.415 2863.53 642.472 2865.93 643.529 2869.24 645.847 2872.56 648.166 2902.12 678.951 2931.69 709.734 2935.9 714.305 2940.11 718.876 2941.93 722.136 2943.75 725.395 2945.21 729.715 2946.68 734.036 2946.74 740.246 2946.8 746.456 2945.83 749.967 2944.87 753.478 2943.31 756.811 2941.75 760.143 2939.6 763.054 2937.45 765.962 2934.6 768.518 2931.74 771.077 2928.5 772.975 2925.26 774.872 2921.14 776.327 2917.03 777.78 2848.85 777.89 2780.66 778 2776.7 776.958 2772.74 775.919 2769.39 774.234 2766.05 772.548 2764.16 771.167 2762.27 769.785 2760.18 767.842 2758.09 765.899 2755.92 762.998 2753.74 760.097 2751.97 756.246 2750.2 752.398 2749.26 747.807 2748.33 743.216 2748.68 738.698 2749.02 734.181 2749.61 731.679 2750.2 729.174 2752.56 724.315 2754.93 719.453 2759.1 714.864 2763.28 710.273 2793 679.34 2822.72 648.406 2826.12 645.988 2829.51 643.572 2831.95 642.492 2834.4 641.415 2839.6 640.066ZM2963.83 577.147 2968.97 578.48 2974.11 579.813 2975.88 580.717 2977.64 581.621 2980.03 583.253 2982.42 584.882 2984.75 587.244 2987.08 589.606 2988.75 592.022 2990.41 594.437 2992.27 598.35 2994.13 602.262 2995.26 606.582 2996.39 610.903 2996.7 617.7 2997 624.5 2996.06 630.095 2995.12 635.692 2993.59 640.383 2992.05 645.076 2989.64 649.859 2987.23 654.644 2984.64 658.155 2982.05 661.667 2979.03 664.835 2976.02 668.007 2972.95 670.374 2969.87 672.739 2965.91 674.866 2961.95 676.99 2958.04 678.065 2954.13 679.14 2949.92 679.434 2945.71 679.728 2941.93 678.9 2938.14 678.068 2934.08 676.135 2930.02 674.204 2925.66 669.828 2921.3 665.448 2919.57 662.343 2917.84 659.238 2916.51 655.714 2915.18 652.191 2914.29 648.018 2913.4 643.846 2913.38 637.096 2913.35 630.345 2914.26 625.657 2915.16 620.969 2916.53 616.745 2917.91 612.524 2919.73 608.742 2921.54 604.963 2924.27 600.796 2927 596.626 2931.1 592.341 2935.2 588.056 2939.21 585.293 2943.22 582.53 2947.09 580.886 2950.96 579.242 2955.64 578.207 2960.32 577.173 2962.08 577.16ZM2730.74 576.07 2732.98 576.077 2735.21 576.083 2740.44 577.382 2745.67 578.682 2749.56 580.631 2753.45 582.581 2755.97 584.282 2758.48 585.983 2762.85 590.342 2767.22 594.703 2769.95 598.753 2772.67 602.803 2774.37 606.179 2776.08 609.554 2777.18 612.338 2778.28 615.121 2779.64 620.302 2781.01 625.486 2781.3 633.047 2781.6 640.608 2780.72 645.633 2779.84 650.661 2778.17 654.981 2776.5 659.302 2773.82 663.301 2771.14 667.297 2767.86 670.213 2764.58 673.129 2761.17 674.825 2757.76 676.518 2754.6 677.286 2751.44 678.058 2748.46 678.246 2745.49 678.436 2742.51 678.098 2739.54 677.764 2736.29 676.822 2733.04 675.88 2729.38 674.049 2725.72 672.22 2722.88 670.131 2720.05 668.04 2716.35 664.315 2712.65 660.589 2710.18 657.131 2707.71 653.674 2705.2 648.761 2702.7 643.846 2701.42 639.801 2700.14 635.753 2699.38 632.779 2698.62 629.806 2698.31 621.395 2698 612.986 2698.92 608.443 2699.84 603.901 2701.48 599.674 2703.11 595.449 2705.79 591.45 2708.47 587.454 2711.48 584.777 2714.49 582.101 2718.35 580.145 2722.22 578.192 2726.48 577.13ZM2796.36 502.352 2800.96 502.388 2805.56 502.426 2809.34 503.586 2813.13 504.748 2816.63 506.79 2820.12 508.833 2824.01 512.492 2827.9 516.152 2830.59 520.053 2833.29 523.955 2835.28 527.923 2837.28 531.889 2838.84 536.661 2840.41 541.436 2841.25 545.859 2842.09 550.282 2842.42 556.29 2842.74 562.299 2841.9 568.672 2841.05 575.043 2838.97 581.151 2836.88 587.257 2834.48 591.483 2832.07 595.706 2827.69 600.096 2823.31 604.483 2819.23 606.492 2815.16 608.502 2811.44 609.289 2807.72 610.075 2805.83 610.022 2803.93 609.965 2801.24 609.516 2798.54 609.067 2795.29 607.889 2792.03 606.712 2788.51 604.442 2784.99 602.175 2781.59 598.794 2778.19 595.41 2775.43 591.322 2772.66 587.232 2770.61 582.862 2768.56 578.493 2767.15 573.644 2765.74 568.792 2764.9 563.655 2764.05 558.519 2764.32 550.147 2764.6 541.776 2766.29 535.331 2767.98 528.886 2770.13 524.591 2772.29 520.293 2774.67 516.956 2777.06 513.619 2780.26 510.669 2783.45 507.717 2787.2 505.789 2790.95 503.859 2793.65 503.106ZM2895.39 502 2899.39 502.84 2903.4 503.68 2906.7 505.23 2910 506.78 2913.11 509.321 2916.22 511.862 2918.94 515.207 2921.66 518.554 2924.33 523.955 2926.99 529.356 2928.34 534.486 2929.7 539.616 2930.34 545.277 2930.98 550.938 2930.61 556.528 2930.25 562.12 2929.43 566.466 2928.6 570.815 2926.95 575.738 2925.3 580.661 2923.4 584.44 2921.5 588.222 2918.8 592.124 2916.11 596.026 2912.21 599.685 2908.31 603.341 2905.28 605.137 2902.24 606.929 2898.55 608.198 2894.85 609.465 2890.79 609.761 2886.73 610.06 2883.21 609.276 2879.7 608.495 2875.67 606.51 2871.64 604.529 2867.28 600.155 2862.92 595.783 2860.72 592.001 2858.52 588.222 2857.06 584.711 2855.59 581.2 2854.21 575.799 2852.83 570.399 2852.52 562.84 2852.22 555.279 2852.86 550.532 2853.49 545.785 2854.77 540.811 2856.05 535.837 2858.08 531.046 2860.1 526.258 2863.2 521.596 2866.31 516.935 2869.75 513.468 2873.2 510.003 2876.78 507.684 2880.36 505.363 2884.36 504.038 2888.35 502.715 2891.87 502.357Z" fill="#E75743" fill-rule="evenodd"/></g></svg>